<svg xmlns="http://www.w3.org/2000/svg" width="256" height="256"><path fill-opacity=".016" d="M0 128.004v128.004l128.25-.254 128.25-.254.254-127.75L257.008 0H0v128.004m.485.496c0 70.4.119 99.053.265 63.672.146-35.38.146-92.98 0-128C.604 29.153.485 58.1.485 128.5" fill="#1976D2" fill-rule="evenodd"/><path fill-opacity=".295" d="M113.19 28.669c-1.953.276-3.183.97-3 1.695.682 2.701 49.369 84.525 50.162 84.305.856-.238 35.589-58.579 35.627-59.844.048-1.548-16.72-13.125-24.295-16.776-14.572-7.022-24.087-9.261-40.684-9.573-7.975-.15-15.99-.063-17.81.193m-20.201 5.766C76.35 40.57 59.535 53.017 48.721 67.205c-5 6.559-13.671 21.138-13.707 23.045C35.006 90.662 56.6 91 83 91s48-.273 48-.606c0-.99-33.455-57.39-34-57.319-.275.036-2.08.648-4.011 1.36m85.614 74.017C164.521 132.35 153 152.15 153 152.452c0 .301 16.155.548 35.9.548h35.901l1.349-5.25c.877-3.411 1.325-10.853 1.278-21.25-.064-14.475-.333-16.858-2.815-25-1.51-4.95-4.495-12.501-6.636-16.779C213.918 76.605 206.257 65 204.958 65c-.414 0-12.274 19.553-26.355 43.452M29.85 108.25c-.877 3.411-1.325 10.853-1.278 21.25.064 14.475.333 16.858 2.815 25 3.294 10.801 8.981 22.459 15.229 31.214 4.17 5.845 4.705 6.268 5.835 4.61.685-1.003 11.935-20.049 25.002-42.324 13.066-22.275 24.395-41.513 25.175-42.75l1.418-2.25H31.199l-1.349 5.25m59.061 43.919c-3.994 6.782-12.132 20.597-18.086 30.7C64.871 192.972 60 201.375 60 201.544c0 .169 3.63 3.042 8.066 6.385 20.325 15.315 44.948 22.085 71.335 19.612 6.274-.587 7.634-1.008 7.17-2.217-.481-1.253-49.282-84.17-50.118-85.155-.155-.182-3.549 5.218-7.542 12m37.535 14.552c.363.946 7.903 13.953 16.754 28.903l16.094 27.184 3.656-1.29c16.182-5.71 33.462-18.465 44.329-32.723 5-6.559 13.671-21.138 13.707-23.045.008-.412-21.409-.75-47.593-.75-44.62 0-47.566.108-46.947 1.721" fill="#1976D2" fill-rule="evenodd"/><path fill-opacity=".259" d="M115.792 28.925c-2.589.362-4.905.864-5.146 1.116-.24.253 10.822 19.491 24.583 42.752 13.76 23.261 25.137 42.161 25.282 42 .144-.161 8.144-13.673 17.777-30.026l17.514-29.734-3.367-2.956c-20.209-17.744-50.297-26.833-76.643-23.152M85.01 38.548c-5.22 2.54-12.195 6.559-15.5 8.929C61.813 52.996 49.286 65.923 44.778 73 41.342 78.393 36 88.414 36 89.467c0 .293 21.335.533 47.412.533h47.412l-16.417-27.75c-10.325-17.452-17.065-27.856-18.162-28.036-.96-.158-6.016 1.793-11.235 4.334M180 106.611c-13.475 22.9-25.08 42.712-25.789 44.026l-1.288 2.388 35.765-.262 35.766-.263 1.262-5.5c2.077-9.049 2.63-21.836 1.363-31.5-2.111-16.109-10.51-36.388-19.366-46.763l-3.213-3.764-24.5 41.638m-148.411-2.756C30.501 105.617 28 122.479 28 128.059c0 20.206 8.643 45.406 20.352 59.341l3.277 3.9 25.686-43.631C91.442 123.672 103 103.805 103 103.519c0-.897-70.855-.563-71.411.336m63.124 39.241c-8.589 13.448-33.67 57.575-33.289 58.567.74 1.929 13.176 10.835 20.64 14.78 15.299 8.088 34.719 12.322 51.492 11.227 15.267-.996 16.447 3.52-11.274-43.17a56790.086 56790.086 0 0 0-25.188-42.404c-.673-1.117-1.16-.912-2.381 1m37.14 32.654c23.298 39.463 27.491 46.25 28.572 46.25 2.318 0 20.075-9.181 26.065-13.477 7.697-5.519 20.224-18.446 24.732-25.523 3.436-5.393 8.778-15.414 8.778-16.467 0-.293-21.128-.533-46.952-.533h-46.952l5.757 9.75" fill="#1976D2" fill-rule="evenodd"/><path fill-opacity=".191" d="M118.234 28.946c-3.446.414-6.522 1.009-6.835 1.322-.551.55 45.684 79.909 48.084 82.533.944 1.032 4.741-4.729 18.354-27.843C187.276 68.929 195 55.442 195 54.987c0-1.565-13.51-11.001-22-15.365-17.313-8.9-37.232-12.783-54.766-10.676m-30.365 8.41C67.245 46.361 49.438 63.109 39.605 82.75L35.975 90h47.096c25.903 0 46.946-.366 46.762-.814-1.595-3.895-32.568-55.14-33.333-55.15-.55-.006-4.434 1.488-8.631 3.32m90.978 71.894-25.424 43.25 34.971.263c26.935.203 35.148-.021 35.736-.974 1.697-2.746 3.263-15.923 3.125-26.289-.246-18.327-5.991-36.309-16.793-52.558-2.539-3.818-4.97-6.942-5.403-6.942-.433 0-12.228 19.462-26.212 43.25m-147.764-2.5c-5.21 19.653-2.449 43.49 7.384 63.75 3.922 8.082 12.283 21.118 13.029 20.315.235-.253 37.583-63.672 48.918-83.065l2.776-4.75H32.077l-.994 3.75m47.419 64.331-17.824 30.251 2.911 2.398c21.192 17.458 48.525 26.143 73.3 23.291 4.613-.531 8.572-1.149 8.797-1.373.224-.225-10.334-18.575-23.464-40.778-13.13-22.204-24.328-41.196-24.885-42.205-.845-1.534-3.938 3.132-18.835 28.416M127 166.547c0 .467 31.717 54.375 32.52 55.272.157.176 3.592-1.059 7.633-2.744 22.357-9.322 41.618-28.136 51.523-50.325l1.227-2.75h-46.451c-25.549 0-46.452.246-46.452.547" fill="#1976D2" fill-rule="evenodd"/></svg>