<svg xmlns="http://www.w3.org/2000/svg" width="256" height="256"><path fill-opacity=".016" d="M0 128.004v128.004l128.25-.254 128.25-.254.254-127.75L257.008 0H0v128.004m.485.496c0 70.4.119 99.053.265 63.672.146-35.38.146-92.98 0-128C.604 29.153.485 58.1.485 128.5" fill="#1976D2" fill-rule="evenodd"/><path fill-opacity=".103" d="M107 14.542c-8.165 1.736-22.375 6.281-24.5 7.835-1.334.975-1.941 6.351-3.573 31.649-1.081 16.761-1.844 31.061-1.696 31.779.148.717 14.219-10.93 31.269-25.882 43.893-38.495 48.882-43.132 47.319-43.99-5.34-2.93-37.301-3.841-48.819-1.391m37.561 27.198c-13.543 11.957-24.271 21.842-23.842 21.968.703.205 71.381 5.239 97.197 6.922 12.042.785 11.788 1.242 4.926-8.863-10.207-15.03-29.42-31.167-46.13-38.743-3.667-1.663-6.862-3.024-7.098-3.024-.237 0-11.51 9.783-25.053 21.74m-81.772-8.252C48.148 43.31 34.653 58.767 26.437 75.125 23.997 79.984 22 84.533 22 85.234c0 1.828 41.564 49.57 42.384 48.684.34-.367 6.652-98.642 6.626-103.168-.014-2.513-.769-2.262-8.221 2.738m138.424 82.132c18.308 21.242 34.263 39.804 35.457 41.25l2.169 2.63.954-2.5c3.479-9.119 4.733-36.126 2.275-49-1.265-6.621-6.423-23.514-7.851-25.711-.533-.82-10.198-1.871-29.909-3.25C188.292 77.917 173.553 77 171.557 77h-3.631l33.287 38.62m-185.779-9.416c-1.233 6.403-1.764 13.654-1.706 23.296.074 12.162.479 15.51 3.084 25.5 3.373 12.934 5.674 18.922 7.47 19.436.67.191 14.268 1.097 30.218 2.012 15.95.916 30.291 1.912 31.868 2.214 1.833.351 2.736.156 2.5-.538-.682-2.012-69.247-80.343-70.831-80.92-.447-.163-1.618 3.887-2.603 9m175.214 24.012c-.357 5.656-1.536 26.484-2.619 46.284-1.083 19.8-2.226 39.262-2.541 43.25-.389 4.94-.222 7.25.525 7.25 4.348 0 26.496-19.551 34.976-30.875C226.108 189.29 235 173.23 235 170.82c0-1.436-41.115-50.025-42.807-50.589-.492-.164-1.187 4.33-1.545 9.985M151.5 191.717c-46.248 40.243-52.947 46.453-51.179 47.443.861.482 6.203 1.588 11.872 2.458 11.937 1.832 29.419 1.338 39.807-1.126 9.544-2.263 21.712-6.429 22.78-7.799.865-1.11 4.812-63.468 4.061-64.157-.188-.173-12.491 10.259-27.341 23.181M29 184.886c0 .487 1.906 3.75 4.236 7.25 5.391 8.1 18.296 21.595 26.732 27.957 7.819 5.895 25.612 15.282 27.554 14.537 2.328-.893 49.872-43 48.894-43.302C135.66 191.095 32.467 184 29.831 184c-.457 0-.831.399-.831.886" fill="#1976D2" fill-rule="evenodd"/><path fill-opacity=".391" d="M113.5 13.649c-6.421 1.002-22.941 5.485-27.6 7.489-3.957 1.702-4.9 2.579-4.9 4.554 0 3.436-2.873 49.784-3.448 55.628-.261 2.652-.08 4.677.401 4.5.686-.251 45.274-39.238 74.826-65.427l4.635-4.106-6.457-1.241c-6.652-1.278-32.132-2.228-37.457-1.397m31.804 27.714c-13.283 11.625-24.185 21.383-24.227 21.683-.042.301 11.511 1.347 25.673 2.326l53.195 3.676c15.095 1.043 27.622 1.718 27.839 1.501.616-.616-7.186-11.731-13.257-18.887-9.308-10.971-25.396-22.769-39.55-29.003l-5.524-2.433-24.149 21.137m-83.535-6.816c-9.386 6.658-19.987 17.098-26.195 25.797-4.664 6.535-13.614 23.139-13.526 25.093.062 1.391 40.073 46.796 41.702 47.324.89.289 1.25-1.067 1.25-4.705 0-5.444 4.519-80.962 5.523-92.306.329-3.712.233-6.736-.212-6.718-.446.017-4.29 2.499-8.542 5.515m109.018 45.054c5.386 7.314 66.826 77.773 67.713 77.653 2.351-.317 3.777-11.057 3.883-29.254.102-17.318-.067-19.131-2.648-28.381-1.517-5.434-3.59-11.763-4.607-14.063l-1.85-4.182-26.389-1.726c-14.514-.949-29.055-2.001-32.313-2.336l-5.924-.61 2.135 2.899M15.667 107.28c-2.072 11.603-2.151 30.009-.172 40.382 1.462 7.663 5.848 22.658 7.329 25.053.505.818 10.611 1.878 31.518 3.307 16.925 1.156 31.58 1.962 32.566 1.79 1.325-.231-7.218-10.582-32.808-39.753-19.03-21.693-35.087-39.593-35.683-39.778-.648-.201-1.751 3.407-2.75 8.999m175.905 14.982c-.754 3.667-5.775 97.952-5.409 101.563l.337 3.324 7.215-5.076c15.879-11.172 28.123-25.231 36.814-42.273l4.839-9.487-14.885-17.407c-27.957-32.694-28.394-33.157-28.911-30.644m-33.754 64.382c-32.851 28.528-58.842 51.665-58.464 52.044.194.194 3.906 1.037 8.249 1.875 10.637 2.05 31.662 2.03 41.897-.041 8.059-1.63 21.851-5.826 24.345-7.405 1.002-.635 1.691-7.075 2.699-25.235.745-13.41 1.621-27.644 1.947-31.632.326-3.988.379-7.25.119-7.25-.261 0-9.617 7.94-20.792 17.644M29 184.504c0 .4 2.018 3.763 4.485 7.474 10.279 15.461 26.898 29.949 44.215 38.544l9.377 4.654 6.712-5.824c30.657-26.606 42.615-37.361 42.018-37.795-.169-.122-22.807-1.675-50.307-3.451-27.5-1.776-51.462-3.476-53.25-3.779-1.788-.302-3.25-.223-3.25.177" fill="#1976D2" fill-rule="evenodd"/><path fill-opacity=".227" d="M115 13.969c-8.309 1.072-22.144 4.614-28.226 7.226-3.933 1.69-4.809 2.557-5.22 5.168-.877 5.561-3.789 57.735-3.253 58.271.487.487 47.923-40.678 68.618-59.546l9.419-8.588-6.419-1.19c-8.884-1.647-27.114-2.347-34.919-1.341m30.217 27.856c-22.138 19.644-23.147 20.693-20.5 21.321 4.394 1.043 101.115 7.356 101.825 6.646 1.139-1.14-7.746-13.073-16.475-22.128-4.686-4.861-12.131-11.226-16.544-14.143-8.727-5.77-21.712-12.57-23.748-12.438-.701.045-11.752 9.379-24.558 20.742m-82.556-7.672C48.144 44.224 34.683 59.867 26.546 76.122c-3.814 7.62-4.336 9.33-3.29 10.775 2.681 3.703 40.135 46.046 40.45 45.73.385-.384 6.289-93.177 6.292-98.877.001-2.062-.336-3.727-.748-3.699-.412.028-3.378 1.873-6.589 4.102m112.008 49.646c3.207 3.729 18.859 21.958 34.782 40.508 18.39 21.425 29.195 33.265 29.62 32.46 1.913-3.619 3.409-16.739 3.392-29.767-.019-15.442-.861-20.811-5.596-35.693l-2.924-9.193-4.222-.523c-2.321-.288-15.696-1.225-29.721-2.082-14.025-.858-26.774-1.769-28.331-2.026-2.709-.445-2.578-.171 3 6.316M17.158 101.5c-5.184 19.614-3.096 49.508 4.733 67.75 1.915 4.463 2.266 4.751 5.823 4.77 2.083.011 16.368.892 31.745 1.957 15.378 1.066 28.097 1.8 28.266 1.632.168-.168-14.214-16.879-31.96-37.136-17.746-20.256-33.454-38.212-34.908-39.901L18.215 97.5l-1.057 4m174.444 26.14c-1.262 13.901-5.66 97.635-5.155 98.141.763.762 10.034-5.609 17.719-12.175 10.479-8.955 22.66-25.348 28.415-38.24l2.291-5.134-19.54-22.866c-10.748-12.576-20.343-23.703-21.324-24.726-1.72-1.794-1.805-1.616-2.406 5M152 192.109c-14.025 12.184-31.559 27.599-38.965 34.256l-13.464 12.104 5.464 1.293c9.444 2.235 31.208 2.693 41.601.876 10.089-1.765 23.968-5.868 26.58-7.858 1.433-1.092 1.921-5.564 3.323-30.436.904-16.035 1.49-29.883 1.302-30.772-.238-1.13-8.007 5.044-25.841 20.537m-122-6.528c0 1.281 7.218 11.312 12.689 17.633 13.044 15.07 40.371 33.12 45.627 30.137 3.123-1.773 46.796-40.572 46.265-41.103-.499-.499-93.407-7.107-101.331-7.207-1.788-.023-3.25.22-3.25.54" fill="#1976D2" fill-rule="evenodd"/></svg>