<svg xmlns="http://www.w3.org/2000/svg" width="256" height="256"><path fill="#1976D2" fill-opacity=".016" fill-rule="evenodd" d="M0 128.004v128.004l128.25-.254 128.25-.254.254-127.75L257.008 0H0v128.004m.485.496c0 70.4.119 99.053.265 63.672.146-35.38.146-92.98 0-128C.604 29.153.485 58.1.485 128.5"/><path fill="#1976D2" fill-opacity=".159" fill-rule="evenodd" d="M107 14.542c-8.165 1.736-22.375 6.281-24.5 7.835-1.334.975-1.941 6.351-3.573 31.649-1.081 16.761-1.844 31.074-1.696 31.807.148.734 14.209-10.901 31.269-25.874 44.423-38.988 48.905-43.155 47.335-44.017-5.354-2.939-37.297-3.855-48.835-1.4m59.405 7.563c-1.048 1.158-11.917 10.909-24.154 21.669-12.236 10.759-22.134 19.676-21.995 19.816.66.66 106.814 7.673 107.392 7.095 1.185-1.185-8.609-14.691-16.963-23.393-8.817-9.184-22.913-19.254-33.973-24.268-7.935-3.598-7.886-3.594-10.307-.919M62.489 33.658c-8.557 5.702-22.715 19.705-28.264 27.954C29.567 68.535 22 83.12 22 85.174c0 1.899 41.532 49.664 42.384 48.744.34-.367 6.652-98.642 6.626-103.168-.014-2.521-.754-2.268-8.521 2.908M203.17 118c19.377 22.549 35.596 40.634 36.043 40.187 1.124-1.124 3.459-14.069 4.271-23.687 1.183-14.002-1.986-34.04-7.631-48.25-1.147-2.888-2.596-5.256-3.219-5.264-.624-.008-13.734-.905-29.134-1.995-15.4-1.089-29.701-1.983-31.781-1.986l-3.78-.005 35.231 41M15.426 106.25c-1.225 6.356-1.756 13.631-1.698 23.25.074 12.162.479 15.51 3.084 25.5 3.373 12.934 5.674 18.922 7.47 19.436.67.191 14.268 1.097 30.218 2.012 15.95.916 30.237 1.9 31.75 2.188 1.513.287 2.75.136 2.75-.336 0-.472-13.387-16.176-29.75-34.896C19.969 98.462 18.666 97 17.881 97c-.37 0-1.475 4.162-2.455 9.25m175.227 23.966c-.355 5.656-1.531 26.259-2.613 45.784-1.083 19.525-2.22 38.988-2.528 43.25-.386 5.348-.215 7.75.551 7.75 2.378 0 16.356-10.661 24-18.306 4.422-4.421 10.442-11.674 13.379-16.116 5.733-8.675 11.558-19.686 11.558-21.851 0-1.385-41.134-49.938-42.77-50.484-.512-.17-1.222 4.318-1.577 9.973M151.5 191.707c-46.624 40.609-52.941 46.467-51.179 47.453.861.482 6.203 1.588 11.872 2.458 11.937 1.832 29.419 1.338 39.807-1.126 9.544-2.263 21.712-6.429 22.78-7.799.866-1.111 4.811-63.45 4.061-64.174-.188-.181-12.491 10.254-27.341 23.188M29 185.055c0 4.747 21.837 28.825 33.329 36.749C69.103 226.474 84.932 235 86.83 235c1.766 0 50.873-43.276 49.564-43.679-.742-.228-103.98-7.321-106.563-7.321-.457 0-.831.475-.831 1.055"/><path fill="#1976D2" fill-opacity=".322" fill-rule="evenodd" d="M113.5 13.647c-6.946 1.1-22.484 5.291-27.303 7.364-4.878 2.098-5.2 2.458-5.24 5.862-.024 1.995-.869 16.002-1.879 31.127-1.009 15.125-1.66 27.692-1.446 27.927.214.235 1.622-.709 3.128-2.098 1.507-1.39 16.015-14.156 32.24-28.371 36.855-32.289 42.978-37.79 42.99-38.625.033-2.217-32.979-4.693-42.49-3.186m31.804 27.716c-13.283 11.625-24.185 21.379-24.227 21.676-.042.296 21.411 2.005 47.673 3.796 26.262 1.792 50.403 3.527 53.646 3.857l5.896.599-2.365-4.206c-9.535-16.967-30.992-35.68-50.95-44.436l-5.524-2.423-24.149 21.137m-83.535-6.816c-9.386 6.658-19.987 17.098-26.195 25.797-4.664 6.535-13.614 23.139-13.526 25.093.062 1.391 40.073 46.796 41.702 47.324.89.289 1.25-1.067 1.25-4.705 0-5.444 4.519-80.962 5.523-92.306.329-3.712.233-6.736-.212-6.718-.446.017-4.29 2.499-8.542 5.515m109.018 45.054c5.386 7.314 66.826 77.773 67.713 77.653 2.351-.317 3.777-11.057 3.883-29.254.102-17.318-.067-19.131-2.648-28.381-1.517-5.434-3.59-11.763-4.607-14.063l-1.85-4.182-26.389-1.726c-14.514-.949-29.055-2.001-32.313-2.336l-5.924-.61 2.135 2.899M17.706 98.666c-.298.483-1.254 4.631-2.124 9.217-1.998 10.532-2.04 29.543-.087 39.779 1.463 7.667 5.849 22.658 7.33 25.055.722 1.168 59.622 5.865 64 5.104 1.4-.243-5.972-9.258-30.52-37.321C20.59 99.67 18.491 97.396 17.706 98.666m173.866 23.596c-.754 3.667-5.775 97.952-5.409 101.563l.337 3.324 7.215-5.076c15.879-11.172 28.123-25.231 36.814-42.273l4.839-9.487-14.885-17.407c-27.957-32.694-28.394-33.157-28.911-30.644m-41.27 70.932c-36.299 31.589-51.384 45.058-50.948 45.493.194.194 3.906 1.041 8.249 1.882 10.335 2.001 31.505 1.992 41.887-.017 7.827-1.516 21.692-5.749 24.355-7.435 1.002-.635 1.691-7.075 2.699-25.235.745-13.41 1.621-27.644 1.947-31.632.326-3.988.372-7.25.103-7.25-.27 0-13.001 10.887-28.292 24.194M29 184.528c0 .386 2.018 3.739 4.485 7.45 10.279 15.461 26.898 29.949 44.215 38.544l9.377 4.654 6.712-5.824c30.732-26.671 42.61-37.357 42.018-37.802-.169-.127-22.582-1.664-49.807-3.417-27.225-1.752-51.187-3.438-53.25-3.747-2.062-.309-3.75-.245-3.75.142"/><path fill="#1976D2" fill-opacity=".252" fill-rule="evenodd" d="M115 13.969c-8.309 1.072-22.144 4.614-28.226 7.226-3.933 1.69-4.809 2.557-5.22 5.168-.859 5.451-3.795 57.73-3.271 58.253.479.479 48.953-41.557 68.636-59.52l9.419-8.596-6.419-1.19c-8.884-1.647-27.114-2.347-34.919-1.341m30.232 27.865L121.964 62.5l3.768.726c5.264 1.014 94.282 6.993 98.235 6.597l3.232-.323-4.331-6.5c-6.354-9.535-20.167-23.412-29.345-29.479-8.732-5.772-21.713-12.571-23.748-12.437-.701.046-11.746 9.384-24.543 20.75M60 36.325C45.365 47.186 32.844 62.441 25.417 78.46c-2.689 5.798-3.042 7.305-2.002 8.54.695.825 9.098 10.457 18.674 21.405 9.576 10.948 18.407 21.073 19.625 22.5 1.218 1.427 2.234 2.37 2.257 2.095.535-6.192 6.026-96.613 6.027-99.25.001-2.062-.336-3.746-.748-3.742-.412.005-4.575 2.847-9.25 6.317m114.669 47.477c53.788 62.585 63.864 73.989 64.428 72.919 3.257-6.175 4.572-38.636 2.034-50.221-.723-3.3-2.674-10.142-4.334-15.205l-3.02-9.206-4.139-.51c-2.276-.281-15.613-1.213-29.638-2.07-14.025-.858-26.774-1.769-28.331-2.026-2.709-.445-2.579-.171 3 6.319M17.158 101.5c-2.186 8.269-3.409 22.241-2.845 32.5.59 10.73 4.21 27.388 7.744 35.633 1.737 4.053 2.144 4.368 5.657 4.379 2.083.007 16.369.887 31.748 1.955 15.378 1.069 28.078 1.826 28.222 1.683.29-.291-5.373-6.855-40.166-46.553-13.21-15.072-25.207-28.797-26.661-30.5L18.215 97.5l-1.057 4m174.406 26.632c-.536 6.291-5.564 93.756-5.564 96.802 0 1.981 1.802 1.085 9.922-4.937 16.063-11.909 29.314-28.179 36.877-45.275l2.018-4.562-19.989-23.33c-10.993-12.831-20.584-23.946-21.312-24.698-1.103-1.14-1.428-.143-1.952 6M143.5 199.554c-18.7 16.31-36.159 31.745-38.797 34.3l-4.798 4.646 5.298 1.278c9.201 2.219 31.064 2.673 41.433.86 10.089-1.765 23.968-5.868 26.58-7.858 1.433-1.092 1.921-5.564 3.323-30.436.904-16.035 1.49-29.895 1.302-30.8-.24-1.157-10.414 7.141-34.341 28.01M30 185.587c0 1.641 10.761 15.814 16.477 21.701 12.723 13.105 36.81 28.285 41.443 26.12 2.917-1.364 47.304-40.517 46.661-41.16-.499-.499-93.407-7.107-101.331-7.207-1.788-.023-3.25.223-3.25.546"/></svg>