<?xml version="1.0" encoding="UTF-8" standalone="no"?>
<svg
   xmlns:svg="http://www.w3.org/2000/svg"
   xmlns="http://www.w3.org/2000/svg"
   xmlns:inkscape="http://www.inkscape.org/namespaces/inkscape"
   width="1984.6334"
   height="1984.6334"
   viewBox="0 -65 330.243 330.243"
   version="1.1"
   inkscape:version="0.92.2 5c3e80d, 2017-08-06">
  <g transform="translate(-84.157,-42.8785)">
    <path d="M 331.842,0 290.561,71.5 331.842,143 373.121,71.5 Z"
       inkscape:connector-curvature="0" style="fill:#3f51b5" />
    <path d="M 373.121,71.5 249.277,286 h 82.565 L 414.4,143 Z"
       inkscape:connector-curvature="0" style="fill:#7986cb" />
    <path d="M 249.277,0 84.157,286 h 82.564 L 331.842,0 Z"
       inkscape:connector-curvature="0" style="fill:#ff4081" />
    <path d="M 249.277,0 290.561,71.5 331.842,0 Z"
       inkscape:connector-curvature="0" style="fill:#ffffff;fill-opacity:0.2" />
    <path d="M 208,71.5 249.277,0 290.561,71.5 Z"
       inkscape:connector-curvature="0" style="fill:#ffffff;fill-opacity:0.1" />
    <path d="M 208,71.5 249.277,143 290.561,71.5 Z"
       inkscape:connector-curvature="0" style="fill:#ffffff;fill-opacity:0" />
    <path d="M 166.721,143 208,71.5 249.277,143 Z"
       inkscape:connector-curvature="0" style="fill-opacity:0.1" />
    <path d="M 166.721,143 208,214.5 249.277,143 Z"
       inkscape:connector-curvature="0" style="fill-opacity:0.2" />
    <path d="M 125.438,214.5 166.721,143 208,214.5 Z"
       inkscape:connector-curvature="0" style="fill-opacity:0.3" />
    <path d="M 125.438,214.5 166.721,286 208,214.5 Z"
       inkscape:connector-curvature="0" style="fill-opacity:0.4" />
    <path d="m 84.157,286 41.281,-71.5 41.283,71.5 z"
       inkscape:connector-curvature="0" style="fill-opacity:0.5" />
    <path d="M 373.121,71.5 331.842,0 290.561,71.5 Z"
       inkscape:connector-curvature="0" style="fill-opacity:0.2" mask="none" />
    <path d="M 373.121,71.5 331.842,143 290.561,71.5 Z"
       inkscape:connector-curvature="0" style="fill:#ffffff;fill-opacity:0" />
    <path d="M 331.842,143 373.121,71.5 414.4,143 Z"
       inkscape:connector-curvature="0" style="fill:#ffffff;fill-opacity:0.2" />
    <path d="M 331.842,143 373.121,214.5 414.4,143 Z"
       inkscape:connector-curvature="0" style="fill:#ffffff;fill-opacity:0.1" />
    <path d="m 290.561,214.5 41.281,-71.5 41.279,71.5 z"
       inkscape:connector-curvature="0" style="fill:#ffffff;fill-opacity:0" />
    <path d="m 290.561,214.5 41.281,71.5 41.279,-71.5 z"
       inkscape:connector-curvature="0" style="fill-opacity:0.1" />
    <path d="m 249.277,286 41.284,-71.5 41.281,71.5 z"
       inkscape:connector-curvature="0" style="fill-opacity:0.2" />
  </g>
  <path d="m -84.157,-107.8785 h 416 v 416 h -416 z"
     inkscape:connector-curvature="0" style="fill:none" />
</svg>
